<?xml version="1.0" standalone="no"?>
<!DOCTYPE svg PUBLIC "-//W3C//DTD SVG 1.1//EN" "http://www.w3.org/Graphics/SVG/1.1/DTD/svg11.dtd" >
<svg xmlns="http://www.w3.org/2000/svg">
<metadata></metadata>
<defs>
<font id="akzidenzgrotesklightregular" horiz-adv-x="1024" >
<font-face units-per-em="2048" ascent="1638" descent="-410" />
<missing-glyph horiz-adv-x="569" />
<glyph horiz-adv-x="2048" />
<glyph horiz-adv-x="2048" />
<glyph unicode="&#xd;" horiz-adv-x="569" />
<glyph unicode=" "  horiz-adv-x="569" />
<glyph unicode="&#x09;" horiz-adv-x="569" />
<glyph unicode="&#xa0;" horiz-adv-x="569" />
<glyph unicode="!" horiz-adv-x="569" d="M207 0v238h155v-238h-155zM215 674v784h139v-784l-18 -328h-103z" />
<glyph unicode="&#x22;" horiz-adv-x="645" d="M158 897v561h102v-561h-102zM385 897v561h102v-561h-102z" />
<glyph unicode="#" horiz-adv-x="1138" d="M55 477v90h246l45 326h-233v90h245l66 475h102l-65 -475h287l65 475h102l-65 -475h233v-90h-245l-45 -326h233v-90h-246l-65 -477h-103l66 477h-287l-65 -477h-103l66 477h-234zM403 567h287l45 326h-286z" />
<glyph unicode="$" horiz-adv-x="1138" d="M-10 358l149 15q43 -104 145.5 -183t213.5 -88v615q-209 61 -299 135q-117 96 -117 260q0 184 145 287q117 82 271 84v135h123v-135q172 -18 270 -97q106 -84 158 -256l-150 -10q-78 223 -278 236v-531q268 -82 356 -147q127 -96 127 -287q0 -180 -154 -301 q-143 -115 -329 -115v-198h-123v198q-168 0 -314 119q-135 108 -194 264zM221 1128q0 -115 90 -184q58 -45 187 -86v498q-104 -2 -185 -56q-92 -63 -92 -172zM621 102q123 0 219 60q125 78 125 229q0 125 -111 199q-59 39 -233 92v-580z" />
<glyph unicode="%" horiz-adv-x="1820" d="M213 1100q0 152 70 260q82 123 227 123t227 -123q70 -109 70 -260q0 -156 -68 -260q-80 -123 -227 -123h-4q-147 0 -227 123q-68 104 -68 260zM315 1100q5 -281 195 -281q195 0 195 281t-195 280q-199 0 -195 -280zM457 -37l807 1555l77 -39l-806 -1553zM1014 358 q0 152 69 260q83 123 228 123t227 -123q70 -109 70 -260q0 -156 -68 -260q-80 -123 -227 -123h-4q-147 0 -228 123q-68 104 -67 260zM1116 358q5 -280 195 -280q195 0 194 280q0 281 -194 281q-199 0 -195 -281z" />
<glyph unicode="&#x26;" horiz-adv-x="1290" d="M90 397q0 150 117 287q96 115 254 199q-63 92 -86 145q-33 76 -33 166q0 135 80 212t215 77q127 0 204 -71t77 -193q0 -121 -91 -222q-55 -63 -188 -155q43 -72 305 -461q52 121 64 266h122q-18 -233 -104 -371q66 -84 100 -114q63 -57 136 -60v-127q-96 0 -177 56 q-55 37 -135 129q-172 -184 -405 -185q-193 0 -324 117t-131 305zM229 397q0 -137 97 -223q90 -84 219 -84q188 0 334 168q-111 137 -351 518q-143 -88 -204 -151q-94 -100 -95 -228zM465 1194q0 -76 104 -246q109 66 150 109q76 72 76 162q0 68 -46.5 108.5t-111.5 40.5 q-80 0 -126 -47t-46 -127z" />
<glyph unicode="'" horiz-adv-x="569" d="M233 897v561h103v-561h-103z" />
<glyph unicode="(" horiz-adv-x="606" d="M94 590q0 313 117 561q131 279 381 414v-107q-358 -279 -359 -868q1 -590 359 -869v-106q-246 137 -377 414q-121 252 -121 561z" />
<glyph unicode=")" horiz-adv-x="606" d="M14 -279q358 279 359 869q0 590 -359 868v107q246 -137 377 -414q121 -252 121 -561q0 -313 -117 -561q-131 -279 -381 -414v106z" />
<glyph unicode="*" horiz-adv-x="569" d="M39 1237l24 98l173 -61l-7 184h111l-10 -184l176 61l24 -98l-178 -51l111 -139l-88 -56l-92 156l-95 -156l-88 56l113 143z" />
<glyph unicode="+" horiz-adv-x="1228" d="M96 467v102h467v467h103v-467h467v-102h-467v-467h-103v467h-467z" />
<glyph unicode="," horiz-adv-x="569" d="M186 -272q92 106 88 272h-67v238h155v-222q0 -176 -106 -340z" />
<glyph unicode="-" horiz-adv-x="757" d="M92 475v127h574v-127h-574z" />
<glyph unicode="." horiz-adv-x="569" d="M207 0v238h155v-238h-155z" />
<glyph unicode="/" horiz-adv-x="948" d="M27 -37l786 1532h109l-787 -1532h-108z" />
<glyph unicode="0" horiz-adv-x="1138" d="M55 729q0 377 156 578q137 176 358 176t359 -176q156 -201 155 -578q0 -377 -155 -575q-137 -178 -359 -179q-221 0 -358 179q-156 198 -156 575zM195 729q0 -358 135 -522q96 -117 239 -117t240 117q135 164 135 522t-135 522q-96 117 -240 117q-143 0 -239 -117 q-135 -164 -135 -522z" />
<glyph unicode="1" horiz-adv-x="1138" d="M297 1120v115q109 -6 180 39q92 55 94 184h119v-1458h-123v1184q-106 -64 -270 -64z" />
<glyph unicode="2" horiz-adv-x="1138" d="M86 1053q0 195 130 312.5t347 117.5q242 0 377 -127q129 -125 129 -344q0 -428 -780 -893v-4h712v-115h-911v115q156 106 311 215q233 164 359 307q170 197 170 383q0 156 -101.5 252t-257.5 96q-158 0 -256 -84q-106 -92 -106 -246q0 -136 92 -245l-164 16 q-51 111 -51 244z" />
<glyph unicode="3" horiz-adv-x="1138" d="M61 420l140 45q0 -207 135 -303q100 -72 244 -72q143 0 244.5 83t101.5 222q0 195 -133 264q-86 43 -271 43h-67q-76 0 -121 -4v121q41 -2 121 -2h63q180 0 279.5 66.5t99.5 187.5q0 145 -87 221t-232 76q-311 0 -349 -319l-139 36q100 397 502 398q223 0 346 -131 q98 -106 98 -256q0 -139 -79.5 -229.5t-225.5 -96.5v-4q92 4 182 -51q152 -92 152 -314q0 -201 -143 -317q-133 -109 -340 -109q-225 0 -363 115t-158 330z" />
<glyph unicode="4" horiz-adv-x="1138" d="M70 365v114l637 979h135v-979h231v-114h-231v-365h-123v365h-649zM209 479h510v768h-4z" />
<glyph unicode="5" horiz-adv-x="1138" d="M66 393l135 39q16 -158 104 -250t232 -92q162 0 258 90q115 106 114 322q0 180 -92 285.5t-266 105.5q-117 0 -199 -78q-75 -69 -108 -188l-119 8l43 823h770v-127h-655l-27 -485h4q88 162 311 162q260 0 385 -183q92 -135 93 -325q0 -190 -97 -330q-133 -195 -415 -195 q-193 0 -316 109t-155 309z" />
<glyph unicode="6" horiz-adv-x="1138" d="M70 680q0 803 557 803q342 0 430 -326l-139 -45q-29 256 -293 256q-219 0 -320 -180q-70 -127 -96 -402h4q59 88 161.5 142.5t209.5 54.5q197 0 325 -109q160 -137 160 -409q0 -205 -117 -338q-133 -152 -379 -152q-266 0 -395 209q-109 180 -108 496zM209 508 q0 -186 113 -305q104 -113 256 -113q147 0 243 92q109 102 109 285q0 166 -74 272q-88 129 -264 129q-166 0 -274.5 -103t-108.5 -257z" />
<glyph unicode="7" horiz-adv-x="1138" d="M111 1006v452h938v-115q-231 -289 -369.5 -649t-149.5 -694h-139q37 397 158 700q113 289 356 631h-672v-325h-122z" />
<glyph unicode="8" horiz-adv-x="1138" d="M59 416q0 135 86 235q78 92 203 131v4q-88 12 -162 93q-86 92 -86 221q0 135 82 235q119 148 387 148t389 -148q80 -100 80 -235q0 -129 -86 -221q-74 -80 -161 -93v-4q123 -39 205.5 -139t82.5 -227q0 -213 -143 -330q-135 -111 -367 -111q-199 0 -338 99 q-172 119 -172 342zM199 397q0 -139 106.5 -223t263.5 -84q158 0 264.5 84t106.5 223q0 145 -96.5 231.5t-274.5 86.5t-274 -86t-96 -232zM240 1102q0 -102 82 -182q93 -91 247 -91q168 0 260 103q70 78 70 170q0 100 -61 170q-86 96 -269 96q-172 0 -258 -86 q-72 -72 -71 -180z" />
<glyph unicode="9" horiz-adv-x="1138" d="M70 993q0 203 116 338q129 152 367 152q516 0 516 -680q0 -827 -557 -828q-342 0 -430 326l139 45q29 -256 293 -256q219 0 320 180q70 127 96 402h-4q-59 -88 -161.5 -142.5t-209.5 -54.5q-195 0 -326 113q-160 137 -159 405zM209 991q0 -162 74 -270q88 -131 264 -131 q166 0 274.5 104.5t108.5 259.5q0 170 -110.5 292t-258.5 122q-147 0 -244 -92q-109 -102 -108 -285z" />
<glyph unicode=":" horiz-adv-x="569" d="M207 0v238h155v-238h-155zM207 731v238h155v-238h-155z" />
<glyph unicode=";" horiz-adv-x="569" d="M186 -272q92 106 88 272h-67v238h155v-222q0 -176 -106 -340zM207 731v238h155v-238h-155z" />
<glyph unicode="&#x3c;" horiz-adv-x="1228" d="M96 463v110l1037 480v-113l-912 -422l912 -422v-112z" />
<glyph unicode="=" horiz-adv-x="1228" d="M96 268v103h1037v-103h-1037zM96 666v102h1037v-102h-1037z" />
<glyph unicode="&#x3e;" horiz-adv-x="1228" d="M96 -16v112l912 422l-912 422v113l1037 -480v-110z" />
<glyph unicode="?" horiz-adv-x="985" d="M86 1124q0 141 88 244q106 127 313 127q180 0 296 -110.5t116 -290.5q0 -164 -98 -287q-92 -90 -185 -178q-98 -98 -98 -203v-70h-123v123q0 111 94 209q88 84 177 168q94 106 94 238q0 121 -78 197.5t-195 76.5q-119 0 -198.5 -74.5t-79.5 -185.5q0 -80 55 -219l-153 45 q-25 74 -25 190zM379 0v238h156v-238h-156z" />
<glyph unicode="@" horiz-adv-x="1638" d="M53 735q0 311 235.5 535.5t565.5 224.5q299 0 510 -174q221 -182 221 -463q0 -201 -139 -385q-154 -203 -356 -203q-68 0 -103 39t-29 103h-4q-145 -141 -303 -142q-131 0 -212 88t-81 217q0 227 142 410q156 201 389 201q163 0 235 -178l56 139h116l-213 -610 q-23 -66 -22 -103q0 -61 53 -61q158 0 270 178q98 156 99 313q0 240 -197 391q-180 137 -428 138q-287 0 -491 -191q-211 -197 -211 -481q0 -291 209 -477q199 -178 483 -178q180 0 334.5 70.5t240.5 203.5h125q-98 -172 -287.5 -274.5t-398.5 -102.5q-354 0 -581.5 213 t-227.5 559zM498 590q0 -96 49 -156.5t135 -60.5q141 0 256 194q100 170 100 314q0 76 -43 131q-49 59 -127 59q-156 0 -270 -176q-100 -155 -100 -305z" />
<glyph unicode="A" horiz-adv-x="1251" d="M-10 0l594 1458h112l566 -1458h-150l-164 438h-641l-174 -438h-143zM354 553h549l-270 719z" />
<glyph unicode="B" horiz-adv-x="1327" d="M133 0v1458h627q250 0 362 -139q72 -92 72 -203q0 -274 -266 -325v-5q154 -14 239 -124q80 -104 80 -256q0 -172 -110 -283q-127 -123 -363 -123h-641zM272 127h504q166 0 256 88q76 74 76 191q0 141 -100.5 226t-280.5 85h-455v-590zM272 844h447q336 0 336 246 q0 131 -78 186t-246 55h-459v-487z" />
<glyph unicode="C" horiz-adv-x="1327" d="M90 729q0 389 186 590q164 176 426 176q221 0 355 -86q141 -88 225 -291l-139 -69q-49 162 -137 235q-102 84 -289 84q-238 0 -367 -176q-121 -168 -121 -463q0 -639 510 -639q303 0 410 309l133 -71q-143 -365 -569 -365q-279 0 -441 178q-182 197 -182 588z" />
<glyph unicode="D" horiz-adv-x="1402" d="M164 0v1458h573q303 0 455 -244q121 -195 121 -485q0 -283 -129 -479q-164 -250 -486 -250h-534zM303 127h387q250 0 377 190q106 160 107 412q0 240 -99 404q-122 198 -354 198h-2h-416v-1204z" />
<glyph unicode="E" horiz-adv-x="1214" d="M133 0v1458h954v-127h-815v-516h736v-127h-736v-561h858v-127h-997z" />
<glyph unicode="F" horiz-adv-x="1138" d="M133 0v1458h950v-127h-811v-487h725v-127h-725v-717h-139z" />
<glyph unicode="G" horiz-adv-x="1402" d="M90 729q0 322 160 531q177 235 495 235h3q390 0 550 -367l-133 -71q-102 311 -407 311q-258 0 -404 -205q-125 -178 -125 -434t117 -432q133 -207 375 -207q221 0 340 154q100 129 100 315v80h-540v127h663v-766h-123v211h-4q-49 -125 -176 -191q-113 -57 -260 -57 q-305 0 -475 225q-156 207 -156 541z" />
<glyph unicode="H" horiz-adv-x="1478" d="M164 0v1458h139v-643h873v643h139v-1458h-139v688h-873v-688h-139z" />
<glyph unicode="I" horiz-adv-x="454" d="M158 0v1458h139v-1458h-139z" />
<glyph unicode="J" horiz-adv-x="985" d="M-16 365v36l139 25v-53q0 -129 72 -203q76 -80 219 -80q274 0 274 336v1032h139v-1022q0 -473 -413 -473q-205 0 -317.5 102.5t-112.5 299.5z" />
<glyph unicode="K" horiz-adv-x="1290" d="M133 0v1458h139v-811l793 811h195l-570 -573l619 -885h-170l-549 784l-318 -321v-463h-139z" />
<glyph unicode="L" horiz-adv-x="1138" d="M164 0v1458h139v-1331h805v-127h-944z" />
<glyph unicode="M" horiz-adv-x="1593" d="M152 0v1458h170l473 -1220h4l473 1220h170v-1458h-139v1192h-5l-454 -1192h-94l-455 1192h-4v-1192h-139z" />
<glyph unicode="N" horiz-adv-x="1441" d="M164 0v1458h137l834 -1225h4v1225h139v-1458h-137l-834 1225h-4v-1225h-139z" />
<glyph unicode="O" horiz-adv-x="1441" d="M90 729q0 317 154 528q172 238 477 238t477 -238q154 -211 154 -528t-154 -528q-172 -238 -477 -238t-477 238q-154 211 -154 528zM229 729q0 -256 117 -432q133 -207 375 -207t375 207q116 175 116 428q0 260 -116 438q-133 205 -375 205t-375 -205q-117 -178 -117 -434 z" />
<glyph unicode="P" horiz-adv-x="1290" d="M164 0v1458h719q197 0 297 -129q82 -106 82 -268q0 -399 -443 -399h-516v-662h-139zM303 788h463q356 0 356 273q0 270 -299 270h-520v-543z" />
<glyph unicode="Q" horiz-adv-x="1441" d="M90 729q0 317 154 528q172 238 477 238t477 -238q154 -211 154 -528q0 -281 -125 -485l200 -181l-94 -100l-184 180q-166 -180 -428 -180q-305 0 -477 238q-154 211 -154 528zM229 729q0 -256 117 -432q133 -207 375 -207t375 207q116 175 116 428q0 260 -116 438 q-133 205 -375 205t-375 -205q-117 -178 -117 -434z" />
<glyph unicode="R" horiz-adv-x="1251" d="M133 0v1458h645q211 0 326 -125q100 -111 100 -280q0 -369 -428 -400l467 -653h-176l-463 647h-332v-647h-139zM272 774h433q360 0 360 279q0 278 -336 278h-2h-455v-557z" />
<glyph unicode="S" horiz-adv-x="1251" d="M82 367l139 71q18 -348 410 -348q174 0 286.5 82t112.5 215q0 182 -225 262q-209 66 -420 131q-225 102 -225 344q0 182 155 285q131 86 310 86q408 0 520 -326l-129 -69q-84 268 -391 268q-125 0 -219 -61q-106 -70 -107 -183q0 -176 225 -252q209 -61 420 -124 q225 -100 225 -338q0 -213 -142 -330t-396 -117q-475 1 -549 404z" />
<glyph unicode="T" horiz-adv-x="1097" d="M23 1331v127h1052v-127h-457v-1331h-139v1331h-456z" />
<glyph unicode="U" horiz-adv-x="1363" d="M145 473v985h140v-981q0 -201 116 -301q102 -86 281 -86q178 0 281 86q117 100 116 301v981h140v-985q0 -246 -144.5 -378t-392.5 -132t-389 129q-147 135 -148 381z" />
<glyph unicode="V" horiz-adv-x="1214" d="M0 1458h150l456 -1237l465 1237h143l-546 -1458h-123z" />
<glyph unicode="W" horiz-adv-x="1781" d="M6 1458h146l337 -1212h5l350 1212h102l361 -1204h4l321 1204h144l-416 -1458h-113l-354 1176h-4l-338 -1176h-109z" />
<glyph unicode="X" horiz-adv-x="1290" d="M0 0l551 795l-479 663h180l395 -575l400 575h174l-480 -672l549 -786h-174l-471 702l-483 -702h-162z" />
<glyph unicode="Y" horiz-adv-x="1249" d="M6 1458h168l455 -721l454 721h160l-549 -850v-608h-139v608z" />
<glyph unicode="Z" horiz-adv-x="1175" d="M49 0v90l883 1241h-836v127h1030v-90l-882 -1241h874v-127h-1069z" />
<glyph unicode="[" horiz-adv-x="606" d="M190 -385v1950h347v-103h-224v-1745h224v-102h-347z" />
<glyph unicode="\" horiz-adv-x="948" d="M27 1495h108l787 -1532h-109z" />
<glyph unicode="]" horiz-adv-x="606" d="M70 -283h223v1745h-223v103h346v-1950h-346v102z" />
<glyph unicode="^" horiz-adv-x="1228" d="M90 530l471 928h107l471 -928h-117l-408 805l-405 -805h-119z" />
<glyph unicode="_" d="M0 -154h1024v-102h-1024v102z" />
<glyph unicode="`" horiz-adv-x="378" d="M-70 1427h158l227 -284h-104z" />
<glyph unicode="a" horiz-adv-x="985" d="M68 236q0 139 112 219q74 51 240 94l301 78v98q0 180 -246 180q-238 0 -244 -237l-139 24q61 315 387 316q236 0 320 -117q45 -66 45 -191v-481q0 -86 39 -113q26 -16 102 -16v-102q-137 0 -180 22q-68 33 -76 150h-4q-104 -184 -344 -185q-131 0 -217 64q-96 70 -96 197 zM190 238q0 -76 66 -115q55 -33 135 -33q115 0 209 70q121 88 121 248v112l-354 -98q-177 -49 -177 -184z" />
<glyph unicode="b" d="M129 0v1458h123v-627h4q33 82 110.5 129.5t178.5 47.5q176 0 291 -136q121 -145 120 -393q0 -250 -143 -389q-119 -115 -274 -115q-215 0 -283 177h-4v-152h-123zM305 219q74 -129 232 -129q133 0 215 109t82 293t-83 292.5t-223 108.5q-282 0 -282 -398q0 -173 59 -276z " />
<glyph unicode="c" horiz-adv-x="948" d="M68 492q0 231 130 373.5t343 142.5q268 0 379 -244l-125 -25q-70 154 -271 154q-137 0 -229 -98q-104 -113 -105 -303q0 -190 103 -302q90 -100 219 -100q195 0 270 160l125 -31q-109 -244 -395 -244q-188 0 -313 142q-131 147 -131 375z" />
<glyph unicode="d" d="M68 479q0 248 120 393q115 135 291 136q195 0 289 -154h4v604h123v-1458h-123v133h-4q-78 -158 -287 -158q-160 0 -276 115q-137 139 -137 389zM190 492q0 -184 82 -293t215 -109q158 0 232 129q59 102 59 273q0 401 -282 401q-139 0 -222.5 -108.5t-83.5 -292.5z" />
<glyph unicode="e" d="M68 492q0 244 131 385q121 131 313 131q209 0 328 -148q108 -135 116 -364h-749v-27q0 -172 76 -272q82 -106 239 -107q225 0 320 209l114 -31q-119 -293 -444 -293q-193 0 -313 134q-131 139 -131 383zM207 598h610q-55 295 -305 295q-127 0 -208 -84t-97 -211z" />
<glyph unicode="f" horiz-adv-x="606" d="M27 881v102h215v311q0 201 241 201q70 0 109 -20v-117q-37 22 -107 22h-6q-115 0 -114 -145v-252h215v-102h-215v-881h-123v881h-215z" />
<glyph unicode="g" horiz-adv-x="1062" d="M68 479q0 248 120 393q115 135 291 136q246 0 328 -187h4v162h123v-1026q0 -205 -66 -309q-100 -156 -366 -156q-197 0 -299 78q-113 86 -131 274l125 27q29 -264 305 -264q152 0 219 59q90 76 90 281v203l-2 4q-104 -178 -324 -179q-156 0 -274 115q-143 139 -143 389z M190 492q0 -184 83 -293t223 -109q311 0 311 383q0 420 -311 420q-139 0 -222.5 -108.5t-83.5 -292.5z" />
<glyph unicode="h" d="M129 0v1458h123v-620h4q84 170 293 170q346 0 346 -342v-666h-123v629q0 143 -61 207q-57 57 -179 57q-119 0 -194 -76q-86 -86 -86 -244v-573h-123z" />
<glyph unicode="i" horiz-adv-x="380" d="M129 0v983h123v-983h-123zM129 1196v193h123v-193h-123z" />
<glyph unicode="j" horiz-adv-x="380" d="M-115 -344q57 -49 152 -49q59 0 80 43q12 28 12 110v1223h123v-1264q0 -227 -207 -227q-98 0 -160 35v129zM129 1196v193h123v-193h-123z" />
<glyph unicode="k" horiz-adv-x="985" d="M129 0v1458h123v-993l536 518h156l-399 -387l438 -596h-149l-377 512l-205 -199v-313h-123z" />
<glyph unicode="l" horiz-adv-x="380" d="M129 0v1458h123v-1458h-123z" />
<glyph unicode="m" horiz-adv-x="1556" d="M139 0v983h123v-158h4q76 182 273 183q115 0 191.5 -55.5t90.5 -159.5h4q82 215 308 215q184 0 249 -136q35 -74 35 -223v-649h-123v635q0 117 -24 170q-43 88 -164 88q-125 0 -197 -102q-70 -94 -69 -244v-547h-123v618q0 125 -29 185q-43 90 -160 90t-191.5 -96.5 t-74.5 -255.5v-541h-123z" />
<glyph unicode="n" d="M129 0v983h123v-143h4q84 168 293 168q346 0 346 -342v-666h-123v629q0 143 -61 207q-57 57 -179 57q-119 0 -194 -76q-86 -86 -86 -244v-573h-123z" />
<glyph unicode="o" d="M68 492q0 244 131 385q121 131 313 131q193 0 315 -131q129 -141 129 -385t-125.5 -380.5t-318.5 -136.5t-313 134q-131 139 -131 383zM190 492q0 -186 90.5 -294t231.5 -108t231.5 107.5t90.5 294.5q0 184 -91.5 292.5t-230.5 108.5t-230.5 -108.5t-91.5 -292.5z" />
<glyph unicode="p" d="M129 -508v1491h123v-147h4q31 74 109.5 123t179.5 49q172 0 286 -127q125 -137 125 -373q0 -281 -129 -420q-104 -113 -274 -113q-227 0 -297 164h-4v-647h-123zM246 492q0 -401 291 -402q133 0 215 109t82 293t-82 292.5t-213 108.5q-293 0 -293 -401z" />
<glyph unicode="q" d="M68 508q0 236 125 373q115 127 286 127q100 0 183 -52q76 -47 106 -120h4v147h123v-1491h-123v660h-4q-78 -176 -297 -177q-170 0 -274 113q-129 139 -129 420zM190 492q0 -184 82 -293t215 -109q291 0 291 402q0 401 -293 401q-131 0 -213 -108.5t-82 -292.5z" />
<glyph unicode="r" horiz-adv-x="606" d="M147 0v983h123v-137h4q106 162 267 162q27 0 88 -4v-107q-39 8 -82 8q-137 0 -207 -91t-70 -249v-565h-123z" />
<glyph unicode="s" horiz-adv-x="909" d="M51 236l119 36q41 -106 105.5 -150t179.5 -44q94 0 157 39q82 53 82 162q0 119 -151 161q-139 35 -279 70q-151 61 -151 225q0 115 89 194t247 79q307 0 370 -224l-117 -28q-53 149 -233 149h-2q-231 0 -231 -172q0 -102 151 -143q139 -39 279 -78q151 -70 151 -236 q0 -129 -98 -213q-104 -88 -283 -88q-272 1 -385 261z" />
<glyph unicode="t" horiz-adv-x="569" d="M16 881v102h201v420h123v-420h213v-102h-213v-650q0 -72 10 -98q14 -43 62 -43q59 0 135 49v-123q-92 -41 -162 -41q-168 0 -168 175v731h-201z" />
<glyph unicode="u" d="M129 317v666h123v-629q0 -143 59.5 -203.5t180.5 -60.5q119 0 199.5 81t80.5 239v573h123v-983h-123v143h-4q-84 -168 -293 -168q-346 0 -346 342z" />
<glyph unicode="v" horiz-adv-x="833" d="M4 983h121l268 -788h4l305 788h127l-391 -983h-96z" />
<glyph unicode="w" horiz-adv-x="1366" d="M-2 983h127l258 -772h4l246 772h100l246 -772h4l258 772h127l-336 -983h-102l-246 793h-4l-244 -793h-102z" />
<glyph unicode="x" horiz-adv-x="872" d="M8 0l363 516l-324 467h137l256 -371l260 371h138l-328 -467l354 -516h-135l-289 420l-295 -420h-137z" />
<glyph unicode="y" horiz-adv-x="872" d="M8 -344q88 -49 127 -49q72 0 123 133l100 258l-338 985h115l285 -827h4l324 827h116l-485 -1247q-47 -121 -80 -164q-59 -80 -160 -80q-49 0 -131 37v127z" />
<glyph unicode="z" horiz-adv-x="757" d="M20 0v84l537 797h-491v102h663v-68l-547 -813h555v-102h-717z" />
<glyph unicode="{" horiz-adv-x="681" d="M170 539v102q147 -6 147 322v342q0 104 39 174q47 86 142 86h102v-103h-78q-57 0 -73 -80q-8 -35 -9 -127v-327q0 -98 -32 -189q-41 -111 -115 -147v-4q74 -37 115 -148q33 -90 32 -188v-328q0 -92 9 -127q16 -80 73 -80h78v-102h-102q-94 0 -142 86q-39 70 -39 174v342 q0 328 -147 322z" />
<glyph unicode="|" horiz-adv-x="454" d="M176 -37v1532h103v-1532h-103z" />
<glyph unicode="}" horiz-adv-x="681" d="M82 -283h78q57 0 73 80q8 35 9 127v328q0 98 32 188q41 111 115 148v4q-74 37 -115 147q-33 90 -32 189v327q0 92 -9 127q-16 80 -73 80h-78v103h102q94 0 144 -86q37 -70 37 -174v-342q0 -328 147 -322v-102q-147 6 -147 -322v-342q0 -104 -37 -174q-49 -86 -144 -86 h-102v102z" />
<glyph unicode="~" horiz-adv-x="1228" d="M141 463q86 176 246 176q90 0 244.5 -69.5t199.5 -69.5q57 0 105 47q23 22 78 100l73 -74q-61 -88 -106 -122q-66 -53 -150 -54q-74 0 -211 70t-233 70q-102 0 -172 -148z" />
<glyph unicode="&#xa1;" horiz-adv-x="569" d="M207 770v238h155v-238h-155zM215 334l18 328h103l18 -328v-785h-139v785z" />
<glyph unicode="&#xa2;" horiz-adv-x="1138" d="M143 492q0 211 104.5 349t284.5 163v225h103v-221q256 -12 360 -244l-125 -25q-63 143 -235 154v-803q162 25 223 160l125 -31q-98 -221 -348 -244v-221h-103v226q-168 18 -278.5 159.5t-110.5 352.5zM266 492q0 -170 82 -279q71 -98 184 -121v797q-113 -23 -186 -121 q-80 -111 -80 -276z" />
<glyph unicode="&#xa3;" horiz-adv-x="1138" d="M29 143q0 70 63 113q55 37 133 37q125 0 240 -53q37 63 35 159q-2 72 -74 181h-283v114h189q-121 121 -162 178q-80 115 -80 238q0 199 170 297q127 76 303 76q190 0 318 -101q141 -113 143 -309l-139 -22q-2 145 -95.5 225t-232.5 80q-147 0 -233 -62q-94 -68 -95 -196 q0 -104 109 -224l176 -180h313v-114h-243q55 -96 55 -185q0 -111 -61 -198q57 -29 114 -56q86 -39 146 -39q88 0 116 82q16 47 17 154v45l139 -14q0 -393 -276 -394q-111 0 -318 111q-35 -45 -107.5 -78t-148.5 -33q-231 0 -231 168zM152 129q0 -51 88 -51q119 0 166 65 q-84 47 -173 47q-82 0 -81 -61z" />
<glyph unicode="&#xa4;" horiz-adv-x="1138" d="M61 287l111 116q-111 137 -111 314q0 178 113 317l-113 113l78 78l115 -113q139 113 315 113t318 -111l112 111l78 -78l-108 -119q109 -133 108 -311q0 -170 -108 -316l108 -114l-78 -78l-108 119q-137 -119 -322 -119q-186 0 -321 119l-109 -119zM164 717 q0 -168 118.5 -287t286.5 -119t287 119t119 287t-119 286.5t-287 118.5t-286.5 -118.5t-118.5 -286.5z" />
<glyph unicode="&#xa5;" horiz-adv-x="1138" d="M14 1458h158l397 -717l404 717h151l-409 -725h258v-102h-316l-18 -33v-166h334v-102h-334v-330h-139v330h-334v102h334v166l-19 33h-315v102h258z" />
<glyph unicode="&#xa6;" horiz-adv-x="454" d="M176 -37v563h103v-563h-103zM176 932v563h103v-563h-103z" />
<glyph unicode="&#xa7;" horiz-adv-x="1138" d="M106 -31l99 97q178 -160 368 -160q98 0 170 45q82 51 82 143q0 98 -213 195l-262 119q-119 53 -168 110q-55 66 -55 172q0 102 72 189q66 82 168 114q-147 92 -148 226q0 125 103 204q92 72 223 72q217 0 393 -170l-92 -92q-156 135 -301 135q-74 0 -125 -33 q-61 -39 -62 -106q0 -104 97 -150l372 -174q188 -88 189 -258q0 -104 -60.5 -192t-162.5 -119q172 -82 172 -242q0 -145 -121 -235q-109 -80 -260 -80q-139 0 -256 49q-94 43 -222 141zM266 692q0 -72 68 -123q37 -28 131 -71l227 -103q184 111 185 250q0 102 -125 160 l-281 129q-205 -123 -205 -242z" />
<glyph unicode="&#xa8;" horiz-adv-x="378" d="M-41 1163v209h123v-209h-123zM297 1163v209h123v-209h-123z" />
<glyph unicode="&#xa9;" horiz-adv-x="1638" d="M53 729q0 317 225.5 541.5t540.5 224.5q317 0 541.5 -224t224.5 -542q0 -317 -224.5 -541.5t-541.5 -224.5q-315 0 -540.5 225.5t-225.5 540.5zM176 729q0 -279 185.5 -471t457.5 -192q274 0 458.5 192t184.5 471t-185 471.5t-458 192.5q-270 0 -456.5 -193.5 t-186.5 -470.5zM369 729q0 217 127 355.5t344 138.5q158 0 269.5 -86t131.5 -240h-115q-20 96 -94 158q-80 66 -190 65q-162 0 -256 -111.5t-94 -279.5q0 -160 96 -272q100 -121 258 -121q111 0 186.5 66.5t93.5 166.5h115q-35 -152 -141.5 -244t-253.5 -92 q-215 0 -346 141.5t-131 354.5z" />
<glyph unicode="&#xaa;" horiz-adv-x="641" d="M23 1020q0 88 73 135q47 33 156 59l190 48v41q0 49 -20 69q-35 33 -139 33q-147 0 -154 -125l-90 14q39 188 248 189q246 0 245 -185v-288q0 -47 23 -60q14 -8 63 -8v-78q-88 0 -116 15q-45 20 -53 96h-5q-68 -111 -219 -111q-84 0 -139 37q-63 43 -63 119zM113 1022 q0 -80 120 -80q76 0 142.5 47.5t66.5 106.5v88l-225 -60q-104 -27 -104 -102z" />
<glyph unicode="&#xab;" horiz-adv-x="720" d="M43 539l250 383l98 -66l-211 -317l211 -318l-98 -65zM330 539l250 383l98 -66l-211 -317l211 -318l-98 -65z" />
<glyph unicode="&#xac;" horiz-adv-x="1228" d="M96 666v102h1037v-547h-103v445h-934z" />
<glyph unicode="&#xad;" horiz-adv-x="757" d="M92 475v127h574v-127h-574z" />
<glyph unicode="&#xae;" horiz-adv-x="1638" d="M53 729q0 317 225.5 541.5t540.5 224.5q317 0 541.5 -224t224.5 -542q0 -317 -224.5 -541.5t-541.5 -224.5q-315 0 -540.5 225.5t-225.5 540.5zM176 729q0 -279 185.5 -471t457.5 -192q274 0 458.5 192t184.5 471t-185 471.5t-458 192.5q-270 0 -456.5 -193.5 t-186.5 -470.5zM541 264v934h338q127 0 206.5 -65.5t79.5 -192.5q0 -111 -58 -181.5t-163 -78.5l262 -416h-127l-248 416h-188v-416h-102zM643 770h211q104 0 152 31q57 39 57 139q0 168 -209 168h-211v-338z" />
<glyph unicode="&#xaf;" horiz-adv-x="378" d="M-74 1223v90h527v-90h-527z" />
<glyph unicode="&#xb0;" horiz-adv-x="819" d="M117 1190q0 121 86 207t207 86t206.5 -86t85.5 -207t-86 -207t-206 -86q-121 0 -207 86t-86 207zM195 1190q0 -88 63.5 -151.5t151.5 -63.5q90 0 152.5 63.5t62.5 151.5q0 90 -62.5 152.5t-152.5 62.5q-88 0 -151.5 -62.5t-63.5 -152.5z" />
<glyph unicode="&#xb1;" horiz-adv-x="1228" d="M96 0v102h1037v-102h-1037zM96 559v103h467v374h103v-374h467v-103h-467v-375h-103v375h-467z" />
<glyph unicode="&#xb2;" horiz-adv-x="739" d="M63 1225q0 125 99 196q84 61 213 62q121 0 203 -53q115 -74 114 -238q0 -143 -176 -305q-125 -115 -287 -201v-2h430v-90h-591v90q98 63 194 127q145 96 223 180q104 113 105 215q0 86 -58.5 136.5t-152.5 50.5t-153.5 -45t-59.5 -131q0 -88 57 -148l-127 10 q-33 66 -33 146z" />
<glyph unicode="&#xb3;" horiz-adv-x="739" d="M41 846l102 26q0 -203 234 -202q86 0 145 39q68 45 68 122q0 109 -80 148q-53 25 -170 25h-45q-49 0 -78 -3v95q27 -2 78 -2h41q109 0 172 38.5t63 104.5q0 156 -196 156q-193 0 -213 -170l-103 22q63 238 326 238q145 0 225 -78q63 -63 64 -154q0 -84 -49 -135 q-55 -57 -150 -59v-4q59 4 119 -29q98 -55 98 -188q0 -121 -90 -188.5t-223 -67.5q-145 0 -234.5 68.5t-103.5 197.5z" />
<glyph unicode="&#xb4;" horiz-adv-x="378" d="M63 1143l228 284h158l-281 -284h-105z" />
<glyph unicode="&#xb6;" horiz-adv-x="1228" d="M135 1063q0 182 119 288.5t338 106.5h444v-1642h-102v1552h-272v-1552h-103v852q-172 0 -295 110q-129 115 -129 285z" />
<glyph unicode="&#xb7;" horiz-adv-x="569" d="M174 641q0 47 33 79t78 32q47 0 78.5 -32t31.5 -79q0 -45 -31.5 -78t-78.5 -33q-45 0 -78 33t-33 78z" />
<glyph unicode="&#xb8;" horiz-adv-x="378" d="M45 -387l31 61q70 -37 133 -36q135 0 135 100q0 86 -108 86q-41 0 -89 -21l-30 27l123 170h77l-94 -119l4 -4q27 12 78 12q53 0 96 -28q57 -39 58 -119q0 -61 -45 -107q-61 -63 -187 -63q-82 0 -182 41z" />
<glyph unicode="&#xb9;" horiz-adv-x="739" d="M184 1245v90q176 -4 178 133h101v-874h-103v688q-67 -37 -176 -37z" />
<glyph unicode="&#xba;" horiz-adv-x="665" d="M45 1176q0 131 72 215q78 92 215 92t215 -92q72 -84 74 -215q2 -133 -70 -220q-78 -92 -217 -92t-217 92q-72 87 -72 220zM135 1171q0 -96 43 -157q53 -72 154 -72q102 0 155 72q43 61 43 157q0 98 -43 160q-53 74 -155 74q-100 0 -154 -74q-43 -62 -43 -160z" />
<glyph unicode="&#xbb;" horiz-adv-x="720" d="M43 221l211 318l-211 317l98 66l250 -383l-250 -383zM330 221l211 318l-211 317l98 66l250 -383l-250 -383z" />
<glyph unicode="&#xbc;" horiz-adv-x="1708" d="M184 1245v90q176 -4 178 133h101v-874h-103v688q-67 -37 -176 -37zM287 -37l903 1532h113l-906 -1532h-110zM885 209v78l413 587h111v-575h127v-90h-127v-209h-102v209h-422zM997 299h310v436h-4z" />
<glyph unicode="&#xbd;" horiz-adv-x="1708" d="M184 1245v90q176 -4 178 133h101v-874h-103v688q-67 -37 -176 -37zM225 -37l903 1532h113l-905 -1532h-111zM909 631q0 125 99 196q84 61 213 62q121 0 202 -53q115 -74 115 -238q0 -143 -176 -305q-125 -115 -287 -201v-2h430v-90h-592v90q98 63 195 127q145 96 223 180 q104 113 105 215q0 86 -58.5 136.5t-152.5 50.5t-153.5 -45t-59.5 -131q0 -88 57 -148l-127 10q-33 66 -33 146z" />
<glyph unicode="&#xbe;" horiz-adv-x="1708" d="M33 846l102 26q-2 -203 236 -202q90 0 151.5 43t61.5 118q0 104 -90 150q-49 25 -160 25h-45q-49 0 -78 -2v94q27 -2 78 -2h41q109 0 172 39t63 102q0 156 -196 156q-193 0 -215 -170l-103 22q63 238 328 238q145 0 225 -78q63 -63 64 -154q0 -84 -50 -135 q-55 -57 -149 -59v-4q57 4 119 -29q98 -55 98 -188q0 -121 -90 -188.5t-225 -67.5q-145 0 -234.5 68.5t-103.5 197.5zM410 -37l903 1532h112l-905 -1532h-110zM973 209v78l413 587h111v-575h127v-90h-127v-209h-102v209h-422zM1085 299h310v436h-4z" />
<glyph unicode="&#xbf;" horiz-adv-x="985" d="M86 -86q0 164 98 287q92 90 185 178q98 98 98 203v69h123v-123q0 -111 -94 -209q-88 -84 -177 -167q-94 -106 -94 -238q0 -121 78 -197.5t195 -76.5q119 0 198.5 74.5t79.5 185.5q0 80 -55 219l153 -45q25 -74 25 -191q0 -141 -86 -243q-109 -127 -315 -127 q-180 0 -296 110.5t-116 290.5zM451 770v238h155v-238h-155z" />
<glyph unicode="&#xc0;" horiz-adv-x="1251" d="M-10 0l594 1458h112l566 -1458h-150l-164 438h-641l-174 -438h-143zM354 553h549l-270 719zM366 1830h158l227 -284h-104z" />
<glyph unicode="&#xc1;" horiz-adv-x="1251" d="M-10 0l594 1458h112l566 -1458h-150l-164 438h-641l-174 -438h-143zM354 553h549l-270 719zM499 1546l228 284h158l-281 -284h-105z" />
<glyph unicode="&#xc2;" horiz-adv-x="1251" d="M-10 0l594 1458h112l566 -1458h-150l-164 438h-641l-174 -438h-143zM325 1546l230 284h137l233 -284h-133l-168 209l-170 -209h-129zM354 553h549l-270 719z" />
<glyph unicode="&#xc3;" horiz-adv-x="1251" d="M-10 0l594 1458h112l566 -1458h-150l-164 438h-641l-174 -438h-143zM305 1568q12 109 84 164q47 37 90 37q57 0 154.5 -44t144.5 -44q63 0 90 96h78q-6 -78 -49 -135q-47 -63 -119 -63q-51 0 -156 47q-92 41 -143 41q-67 -1 -98 -99h-76zM354 553h549l-270 719z" />
<glyph unicode="&#xc4;" horiz-adv-x="1251" d="M-10 0l594 1458h112l566 -1458h-150l-164 438h-641l-174 -438h-143zM354 553h549l-270 719zM395 1566v209h123v-209h-123zM733 1566v209h123v-209h-123z" />
<glyph unicode="&#xc5;" horiz-adv-x="1251" d="M-10 0l594 1458h112l566 -1458h-150l-164 438h-641l-174 -438h-143zM354 553h549l-270 719zM437 1702q0 84 59 144.5t143 60.5t144.5 -60.5t60.5 -144.5t-60.5 -143.5t-144.5 -59.5t-143 59.5t-59 143.5zM502 1702q0 -57 40 -97t97 -40t98.5 40t41.5 97t-41 98t-99 41 q-57 0 -97 -41t-40 -98z" />
<glyph unicode="&#xc6;" horiz-adv-x="2048" d="M-31 0l936 1458h1022v-127h-842v-516h758v-127h-758v-561h879v-127h-1018v422h-553l-262 -422h-162zM479 549h467v745h-4z" />
<glyph unicode="&#xc7;" horiz-adv-x="1327" d="M90 729q0 389 186 590q164 176 426 176q221 0 355 -86q141 -88 225 -291l-139 -69q-49 162 -137 235q-102 84 -289 84q-238 0 -367 -176q-121 -168 -121 -463q0 -639 510 -639q303 0 410 309l133 -71q-143 -365 -569 -365q-279 0 -441 178q-182 197 -182 588zM520 -387 l31 61q70 -37 133 -36q135 0 135 100q0 86 -108 86q-41 0 -89 -21l-30 27l123 170h77l-94 -119l4 -4q27 12 78 12q53 0 96 -28q57 -39 58 -119q0 -61 -45 -107q-61 -63 -187 -63q-82 0 -182 41z" />
<glyph unicode="&#xc8;" horiz-adv-x="1214" d="M133 0v1458h954v-127h-815v-516h736v-127h-736v-561h858v-127h-997zM348 1830h158l227 -284h-104z" />
<glyph unicode="&#xc9;" horiz-adv-x="1214" d="M133 0v1458h954v-127h-815v-516h736v-127h-736v-561h858v-127h-997zM481 1546l228 284h158l-281 -284h-105z" />
<glyph unicode="&#xca;" horiz-adv-x="1214" d="M133 0v1458h954v-127h-815v-516h736v-127h-736v-561h858v-127h-997zM307 1546l230 284h137l233 -284h-133l-168 209l-170 -209h-129z" />
<glyph unicode="&#xcb;" horiz-adv-x="1214" d="M133 0v1458h954v-127h-815v-516h736v-127h-736v-561h858v-127h-997zM377 1566v209h123v-209h-123zM715 1566v209h123v-209h-123z" />
<glyph unicode="&#xcc;" horiz-adv-x="454" d="M-31 1830h158l227 -284h-104zM158 0v1458h139v-1458h-139z" />
<glyph unicode="&#xcd;" horiz-adv-x="454" d="M102 1546l228 284h158l-281 -284h-105zM158 0v1458h139v-1458h-139z" />
<glyph unicode="&#xce;" horiz-adv-x="454" d="M-72 1546l230 284h137l233 -284h-133l-168 209l-170 -209h-129zM158 0v1458h139v-1458h-139z" />
<glyph unicode="&#xcf;" horiz-adv-x="454" d="M-2 1566v209h123v-209h-123zM158 0v1458h139v-1458h-139zM336 1566v209h123v-209h-123z" />
<glyph unicode="&#xd0;" horiz-adv-x="1402" d="M51 754v90h113v614h598q274 0 426 -244q125 -205 125 -485q0 -274 -131 -475q-166 -254 -484 -254h-534v754h-113zM303 127h445q211 0 327 201q98 168 99 401q0 233 -99 404q-117 199 -327 198h-445v-487h414v-90h-414v-627z" />
<glyph unicode="&#xd1;" horiz-adv-x="1441" d="M164 0v1458h137l834 -1225h4v1225h139v-1458h-137l-834 1225h-4v-1225h-139zM401 1568q12 109 84 164q47 37 90 37q57 0 154.5 -44t144.5 -44q63 0 90 96h78q-6 -78 -49 -135q-47 -63 -119 -63q-51 0 -156 47q-92 41 -143 41q-67 -1 -98 -99h-76z" />
<glyph unicode="&#xd2;" horiz-adv-x="1441" d="M90 729q0 317 154 528q172 238 477 238t477 -238q154 -211 154 -528t-154 -528q-172 -238 -477 -238t-477 238q-154 211 -154 528zM229 729q0 -256 117 -432q133 -207 375 -207t375 207q117 176 116 432q0 256 -116 434q-133 205 -375 205t-375 -205q-117 -178 -117 -434 zM462 1830h158l227 -284h-104z" />
<glyph unicode="&#xd3;" horiz-adv-x="1441" d="M90 729q0 317 154 528q172 238 477 238t477 -238q154 -211 154 -528t-154 -528q-172 -238 -477 -238t-477 238q-154 211 -154 528zM229 729q0 -256 117 -432q133 -207 375 -207t375 207q117 176 116 432q0 256 -116 434q-133 205 -375 205t-375 -205q-117 -178 -117 -434 zM595 1546l228 284h158l-281 -284h-105z" />
<glyph unicode="&#xd4;" horiz-adv-x="1441" d="M90 729q0 317 154 528q172 238 477 238t477 -238q154 -211 154 -528t-154 -528q-172 -238 -477 -238t-477 238q-154 211 -154 528zM229 729q0 -256 117 -432q133 -207 375 -207t375 207q117 176 116 432q0 256 -116 434q-133 205 -375 205t-375 -205q-117 -178 -117 -434 zM421 1546l230 284h137l233 -284h-133l-168 209l-170 -209h-129z" />
<glyph unicode="&#xd5;" horiz-adv-x="1441" d="M90 729q0 317 154 528q172 238 477 238t477 -238q154 -211 154 -528t-154 -528q-172 -238 -477 -238t-477 238q-154 211 -154 528zM229 729q0 -256 117 -432q133 -207 375 -207t375 207q117 176 116 432q0 256 -116 434q-133 205 -375 205t-375 -205q-117 -178 -117 -434 zM401 1568q12 109 84 164q47 37 90 37q57 0 154.5 -44t144.5 -44q63 0 90 96h78q-6 -78 -49 -135q-47 -63 -119 -63q-51 0 -156 47q-92 41 -143 41q-67 -1 -98 -99h-76z" />
<glyph unicode="&#xd6;" horiz-adv-x="1441" d="M90 729q0 317 154 528q172 238 477 238t477 -238q154 -211 154 -528t-154 -528q-172 -238 -477 -238t-477 238q-154 211 -154 528zM229 729q0 -256 117 -432q133 -207 375 -207t375 207q117 176 116 432q0 256 -116 434q-133 205 -375 205t-375 -205q-117 -178 -117 -434 zM491 1566v209h123v-209h-123zM829 1566v209h123v-209h-123z" />
<glyph unicode="&#xd7;" horiz-adv-x="1228" d="M152 129l391 389l-391 389l73 74l389 -387l390 387l73 -74l-391 -389l391 -389l-73 -74l-390 391l-389 -391z" />
<glyph unicode="&#xd8;" horiz-adv-x="1441" d="M90 729q0 317 154 528q172 238 477 238q262 0 424 -176l125 151l82 -67l-140 -168q139 -207 140 -506q0 -317 -154 -528q-172 -238 -477 -238q-258 0 -420 172l-123 -147l-84 65l139 168q-143 203 -143 508zM229 729q1 -225 97 -397l731 882q-129 154 -336 154 q-242 0 -375 -205q-117 -178 -117 -434zM389 240q125 -150 332 -150q242 0 375 207q117 176 116 432q0 229 -94 393z" />
<glyph unicode="&#xd9;" horiz-adv-x="1363" d="M145 473v985h140v-981q0 -201 116 -301q102 -86 281 -86q178 0 281 86q117 100 116 301v981h140v-985q0 -246 -144.5 -378t-392.5 -132t-389 129q-147 135 -148 381zM424 1830h158l227 -284h-104z" />
<glyph unicode="&#xda;" horiz-adv-x="1363" d="M145 473v985h140v-981q0 -201 116 -301q102 -86 281 -86q178 0 281 86q117 100 116 301v981h140v-985q0 -246 -144.5 -378t-392.5 -132t-389 129q-147 135 -148 381zM557 1546l228 284h158l-281 -284h-105z" />
<glyph unicode="&#xdb;" horiz-adv-x="1363" d="M145 473v985h140v-981q0 -201 116 -301q102 -86 281 -86q178 0 281 86q117 100 116 301v981h140v-985q0 -246 -144.5 -378t-392.5 -132t-389 129q-147 135 -148 381zM383 1546l230 284h137l233 -284h-133l-168 209l-170 -209h-129z" />
<glyph unicode="&#xdc;" horiz-adv-x="1363" d="M145 473v985h140v-981q0 -201 116 -301q102 -86 281 -86q178 0 281 86q117 100 116 301v981h140v-985q0 -246 -144.5 -378t-392.5 -132t-389 129q-147 135 -148 381zM453 1566v209h123v-209h-123zM791 1566v209h123v-209h-123z" />
<glyph unicode="&#xdd;" horiz-adv-x="1249" d="M6 1458h168l455 -721l454 721h160l-549 -850v-608h-139v608zM499 1546l228 284h158l-281 -284h-105z" />
<glyph unicode="&#xde;" horiz-adv-x="1290" d="M164 0v1458h139v-231h606q168 0 267 -121q86 -111 86 -277q0 -190 -127 -303q-109 -96 -258 -96h-574v-430h-139zM303 557h561q94 0 170 64q88 78 88 208q0 270 -237 271h-582v-543z" />
<glyph unicode="&#xdf;" horiz-adv-x="950" d="M106 0v1077q0 199 92.5 308.5t272.5 109.5q168 0 258 -98q84 -90 84 -242q0 -240 -227 -313v-4q315 -61 315 -463q0 -176 -80 -287q-90 -125 -256 -125q-111 0 -215 62v141q135 -88 223 -88q109 0 164 108q41 84 41 203q0 377 -405 377h-51v115h40q328 0 328 258 q0 111 -56 176t-167 65q-238 0 -238 -290v-1090h-123z" />
<glyph unicode="&#xe0;" horiz-adv-x="985" d="M68 236q0 139 112 219q74 51 240 94l301 78v98q0 180 -246 180q-238 0 -244 -237l-139 24q61 315 387 316q236 0 320 -117q45 -66 45 -191v-481q0 -86 39 -113q26 -16 102 -16v-102q-137 0 -180 22q-68 33 -76 150h-4q-104 -184 -344 -185q-131 0 -217 64q-96 70 -96 197 zM190 238q0 -76 66 -115q55 -33 135 -33q115 0 209 70q121 88 121 248v112l-354 -98q-177 -49 -177 -184zM233 1427h158l227 -284h-104z" />
<glyph unicode="&#xe1;" horiz-adv-x="985" d="M68 236q0 139 112 219q74 51 240 94l301 78v98q0 180 -246 180q-238 0 -244 -237l-139 24q61 315 387 316q236 0 320 -117q45 -66 45 -191v-481q0 -86 39 -113q26 -16 102 -16v-102q-137 0 -180 22q-68 33 -76 150h-4q-104 -184 -344 -185q-131 0 -217 64q-96 70 -96 197 zM190 238q0 -76 66 -115q55 -33 135 -33q115 0 209 70q121 88 121 248v112l-354 -98q-177 -49 -177 -184zM366 1143l228 284h158l-281 -284h-105z" />
<glyph unicode="&#xe2;" horiz-adv-x="985" d="M68 236q0 139 112 219q74 51 240 94l301 78v98q0 180 -246 180q-238 0 -244 -237l-139 24q61 315 387 316q236 0 320 -117q45 -66 45 -191v-481q0 -86 39 -113q26 -16 102 -16v-102q-137 0 -180 22q-68 33 -76 150h-4q-104 -184 -344 -185q-131 0 -217 64q-96 70 -96 197 zM190 238q0 -76 66 -115q55 -33 135 -33q115 0 209 70q121 88 121 248v112l-354 -98q-177 -49 -177 -184zM192 1143l230 284h137l233 -284h-133l-168 209l-170 -209h-129z" />
<glyph unicode="&#xe3;" horiz-adv-x="985" d="M68 236q0 139 112 219q74 51 240 94l301 78v98q0 180 -246 180q-238 0 -244 -237l-139 24q61 315 387 316q236 0 320 -117q45 -66 45 -191v-481q0 -86 39 -113q26 -16 102 -16v-102q-137 0 -180 22q-68 33 -76 150h-4q-104 -184 -344 -185q-131 0 -217 64q-96 70 -96 197 zM172 1165q12 109 84 164q47 37 90 37q57 0 154.5 -44t144.5 -44q63 0 90 96h78q-6 -78 -49 -135q-47 -63 -119 -63q-51 0 -156 47q-92 41 -143 41q-67 -1 -98 -99h-76zM190 238q0 -76 66 -115q55 -33 135 -33q115 0 209 70q121 88 121 248v112l-354 -98q-177 -49 -177 -184 z" />
<glyph unicode="&#xe4;" horiz-adv-x="985" d="M68 236q0 139 112 219q74 51 240 94l301 78v98q0 180 -246 180q-238 0 -244 -237l-139 24q61 315 387 316q236 0 320 -117q45 -66 45 -191v-481q0 -86 39 -113q26 -16 102 -16v-102q-137 0 -180 22q-68 33 -76 150h-4q-104 -184 -344 -185q-131 0 -217 64q-96 70 -96 197 zM190 238q0 -76 66 -115q55 -33 135 -33q115 0 209 70q121 88 121 248v112l-354 -98q-177 -49 -177 -184zM262 1163v209h123v-209h-123zM600 1163v209h123v-209h-123z" />
<glyph unicode="&#xe5;" horiz-adv-x="985" d="M68 236q0 139 112 219q74 51 240 94l301 78v98q0 180 -246 180q-238 0 -244 -237l-139 24q61 315 387 316q236 0 320 -117q45 -66 45 -191v-481q0 -86 39 -113q26 -16 102 -16v-102q-137 0 -180 22q-68 33 -76 150h-4q-104 -184 -344 -185q-131 0 -217 64q-96 70 -96 197 zM190 238q0 -76 66 -115q55 -33 135 -33q115 0 209 70q121 88 121 248v112l-354 -98q-177 -49 -177 -184zM289 1319q0 84 59 144.5t143 60.5t144.5 -60.5t60.5 -144.5t-60.5 -143.5t-144.5 -59.5t-143 59.5t-59 143.5zM354 1319q0 -57 40 -97t97 -40t98.5 40t41.5 97t-41 98 t-99 41q-57 0 -97 -41t-40 -98z" />
<glyph unicode="&#xe6;" horiz-adv-x="1669" d="M68 236q0 141 112 219q76 55 240 94l319 78v98q0 180 -256 180q-246 0 -252 -237l-139 24q61 315 387 316q264 0 359 -158q121 158 336 158q209 0 327 -148q109 -135 117 -364h-756v-27q0 -172 76 -272q82 -106 240 -107q231 0 325 209l115 -31q-119 -293 -434 -293 q-131 0 -236 58q-111 59 -155 166q-135 -223 -412 -224q-131 0 -217 64q-96 70 -96 197zM190 238q0 -74 64 -115q51 -33 119 -33q147 0 252 80q115 90 114 240v110l-372 -98q-177 -47 -177 -184zM862 598h617q-25 133 -80 201q-76 94 -225 94q-131 0 -213.5 -83t-98.5 -212z " />
<glyph unicode="&#xe7;" horiz-adv-x="948" d="M68 492q0 231 130 373.5t343 142.5q268 0 379 -244l-125 -25q-70 154 -271 154q-137 0 -229 -98q-104 -113 -105 -303q0 -190 103 -302q90 -100 219 -100q195 0 270 160l125 -31q-109 -244 -395 -244q-188 0 -313 142q-131 147 -131 375zM330 -387l31 61q70 -37 133 -36 q135 0 135 100q0 86 -108 86q-41 0 -89 -21l-30 27l123 170h77l-94 -119l4 -4q27 12 78 12q53 0 96 -28q57 -39 58 -119q0 -61 -45 -107q-61 -63 -187 -63q-82 0 -182 41z" />
<glyph unicode="&#xe8;" d="M68 492q0 244 131 385q121 131 313 131q209 0 328 -148q108 -135 116 -364h-749v-27q0 -172 76 -272q82 -106 239 -107q225 0 320 209l114 -31q-119 -293 -444 -293q-193 0 -313 134q-131 139 -131 383zM207 598h610q-55 295 -305 295q-127 0 -208 -84t-97 -211z M254 1427h158l227 -284h-104z" />
<glyph unicode="&#xe9;" d="M68 492q0 244 131 385q121 131 313 131q209 0 328 -148q108 -135 116 -364h-749v-27q0 -172 76 -272q82 -106 239 -107q225 0 320 209l114 -31q-119 -293 -444 -293q-193 0 -313 134q-131 139 -131 383zM207 598h610q-55 295 -305 295q-127 0 -208 -84t-97 -211z M387 1143l228 284h158l-281 -284h-105z" />
<glyph unicode="&#xea;" d="M68 492q0 244 131 385q121 131 313 131q209 0 328 -148q108 -135 116 -364h-749v-27q0 -172 76 -272q82 -106 239 -107q225 0 320 209l114 -31q-119 -293 -444 -293q-193 0 -313 134q-131 139 -131 383zM207 598h610q-55 295 -305 295q-127 0 -208 -84t-97 -211z M213 1143l230 284h137l233 -284h-133l-168 209l-170 -209h-129z" />
<glyph unicode="&#xeb;" d="M68 492q0 244 131 385q121 131 313 131q209 0 328 -148q108 -135 116 -364h-749v-27q0 -172 76 -272q82 -106 239 -107q225 0 320 209l114 -31q-119 -293 -444 -293q-193 0 -313 134q-131 139 -131 383zM207 598h610q-55 295 -305 295q-127 0 -208 -84t-97 -211z M283 1163v209h123v-209h-123zM621 1163v209h123v-209h-123z" />
<glyph unicode="&#xec;" horiz-adv-x="380" d="M-68 1427h158l227 -284h-104zM129 0v983h123v-983h-123z" />
<glyph unicode="&#xed;" horiz-adv-x="380" d="M65 1143l228 284h158l-281 -284h-105zM129 0v983h123v-983h-123z" />
<glyph unicode="&#xee;" horiz-adv-x="380" d="M-109 1143l230 284h137l233 -284h-133l-168 209l-170 -209h-129zM129 0v983h123v-983h-123z" />
<glyph unicode="&#xef;" horiz-adv-x="380" d="M-39 1163v209h123v-209h-123zM129 0v983h123v-983h-123zM299 1163v209h123v-209h-123z" />
<glyph unicode="&#xf0;" d="M68 492q0 244 131 385q121 131 313 131q121 0 240 -101h4q-111 188 -334 373l-174 -119l-60 58l166 110q-29 25 -123 90l76 76q51 -29 146 -98l165 110l60 -53l-162 -111q440 -365 440 -813q0 -268 -116.5 -411.5t-327.5 -143.5q-193 0 -313 134q-131 139 -131 383z M190 492q0 -203 93 -308q84 -94 229 -94q147 0 229 94q93 103 93 308t-93 307q-82 94 -229 94q-145 0 -229 -94q-92 -104 -93 -307z" />
<glyph unicode="&#xf1;" d="M129 0v983h123v-143h4q84 168 293 168q346 0 346 -342v-666h-123v629q0 143 -61 207q-57 57 -179 57q-119 0 -194 -76q-86 -86 -86 -244v-573h-123zM193 1165q12 109 84 164q47 37 90 37q57 0 154.5 -44t144.5 -44q63 0 90 96h78q-6 -78 -49 -135q-47 -63 -119 -63 q-51 0 -156 47q-92 41 -143 41q-67 -1 -98 -99h-76z" />
<glyph unicode="&#xf2;" d="M68 492q0 244 131 385q121 131 313 131q193 0 315 -131q129 -141 129 -385t-125.5 -380.5t-318.5 -136.5t-313 134q-131 139 -131 383zM190 492q0 -186 90.5 -294t231.5 -108t231.5 107.5t90.5 294.5q0 184 -91.5 292.5t-230.5 108.5t-230.5 -108.5t-91.5 -292.5z M254 1427h158l227 -284h-104z" />
<glyph unicode="&#xf3;" d="M68 492q0 244 131 385q121 131 313 131q193 0 315 -131q129 -141 129 -385t-125.5 -380.5t-318.5 -136.5t-313 134q-131 139 -131 383zM190 492q0 -186 90.5 -294t231.5 -108t231.5 107.5t90.5 294.5q0 184 -91.5 292.5t-230.5 108.5t-230.5 -108.5t-91.5 -292.5z M387 1143l228 284h158l-281 -284h-105z" />
<glyph unicode="&#xf4;" d="M68 492q0 244 131 385q121 131 313 131q193 0 315 -131q129 -141 129 -385t-125.5 -380.5t-318.5 -136.5t-313 134q-131 139 -131 383zM190 492q0 -186 90.5 -294t231.5 -108t231.5 107.5t90.5 294.5q0 184 -91.5 292.5t-230.5 108.5t-230.5 -108.5t-91.5 -292.5z M213 1143l230 284h137l233 -284h-133l-168 209l-170 -209h-129z" />
<glyph unicode="&#xf5;" d="M68 492q0 244 131 385q121 131 313 131q193 0 315 -131q129 -141 129 -385t-125.5 -380.5t-318.5 -136.5t-313 134q-131 139 -131 383zM190 492q0 -186 90.5 -294t231.5 -108t231.5 107.5t90.5 294.5q0 184 -91.5 292.5t-230.5 108.5t-230.5 -108.5t-91.5 -292.5z M193 1165q12 109 84 164q47 37 90 37q57 0 154.5 -44t144.5 -44q63 0 90 96h78q-6 -78 -49 -135q-47 -63 -119 -63q-51 0 -156 47q-92 41 -143 41q-67 -1 -98 -99h-76z" />
<glyph unicode="&#xf6;" d="M68 492q0 244 131 385q121 131 313 131q193 0 315 -131q129 -141 129 -385t-125.5 -380.5t-318.5 -136.5t-313 134q-131 139 -131 383zM190 492q0 -186 90.5 -294t231.5 -108t231.5 107.5t90.5 294.5q0 184 -91.5 292.5t-230.5 108.5t-230.5 -108.5t-91.5 -292.5z M283 1163v209h123v-209h-123zM621 1163v209h123v-209h-123z" />
<glyph unicode="&#xf7;" horiz-adv-x="1228" d="M96 467v102h1037v-102h-1037zM500 94q0 47 33.5 81t80.5 34t81 -34t34 -81q0 -43 -33.5 -78.5t-79.5 -35.5q-47 0 -81.5 33.5t-34.5 80.5zM500 942q0 47 33.5 81t80.5 34t81 -34t34 -81q0 -43 -33.5 -79t-79.5 -36q-47 0 -81.5 34t-34.5 81z" />
<glyph unicode="&#xf8;" d="M68 492q0 244 131 385q121 131 313 131q121 0 221 -56l51 90l66 -41l-55 -94q162 -145 161 -415q0 -244 -125.5 -380.5t-318.5 -136.5q-123 0 -219 60l-51 -90l-68 37l57 98q-164 133 -163 412zM190 492q1 -193 103 -306l379 660q-70 47 -160 47q-139 0 -230.5 -108.5 t-91.5 -292.5zM352 137q68 -47 160 -47q141 0 231.5 107.5t90.5 294.5q-1 199 -103 305z" />
<glyph unicode="&#xf9;" d="M129 317v666h123v-629q0 -143 59.5 -203.5t180.5 -60.5q119 0 199.5 81t80.5 239v573h123v-983h-123v143h-4q-84 -168 -293 -168q-346 0 -346 342zM254 1427h158l227 -284h-104z" />
<glyph unicode="&#xfa;" d="M129 317v666h123v-629q0 -143 59.5 -203.5t180.5 -60.5q119 0 199.5 81t80.5 239v573h123v-983h-123v143h-4q-84 -168 -293 -168q-346 0 -346 342zM387 1143l228 284h158l-281 -284h-105z" />
<glyph unicode="&#xfb;" d="M129 317v666h123v-629q0 -143 59.5 -203.5t180.5 -60.5q119 0 199.5 81t80.5 239v573h123v-983h-123v143h-4q-84 -168 -293 -168q-346 0 -346 342zM213 1143l230 284h137l233 -284h-133l-168 209l-170 -209h-129z" />
<glyph unicode="&#xfc;" d="M129 317v666h123v-629q0 -143 59.5 -203.5t180.5 -60.5q119 0 199.5 81t80.5 239v573h123v-983h-123v143h-4q-84 -168 -293 -168q-346 0 -346 342zM283 1163v209h123v-209h-123zM621 1163v209h123v-209h-123z" />
<glyph unicode="&#xfd;" horiz-adv-x="872" d="M8 -344q88 -49 127 -49q72 0 123 133l100 258l-338 985h115l285 -827h4l324 827h116l-485 -1247q-47 -121 -80 -164q-59 -80 -160 -80q-49 0 -131 37v127zM311 1143l228 284h158l-281 -284h-105z" />
<glyph unicode="&#xfe;" d="M129 -508v1966h123v-635h4q29 82 108.5 133.5t180.5 51.5q176 0 291 -136q121 -145 120 -393q0 -250 -143 -389q-119 -115 -274 -115q-215 0 -283 177h-4v-660h-123zM246 492q0 -401 282 -402q139 0 222.5 109t83.5 293t-83 292.5t-223 108.5q-283 0 -282 -401z" />
<glyph unicode="&#xff;" horiz-adv-x="872" d="M8 -344q88 -49 127 -49q72 0 123 133l100 258l-338 985h115l285 -827h4l324 827h116l-485 -1247q-47 -121 -80 -164q-59 -80 -160 -80q-49 0 -131 37v127zM207 1163v209h123v-209h-123zM545 1163v209h123v-209h-123z" />
<glyph unicode="&#x152;" horiz-adv-x="2162" d="M90 729q0 350 187.5 558t525.5 208q129 0 313 -37h948v-127h-854v-516h770v-127h-770v-561h901v-127h-1009q-180 -37 -277 -37q-350 0 -544 211q-190 203 -191 555zM229 729q0 -295 152 -463q160 -176 457 -176q120 0 233 33v1212q-152 33 -233 33q-297 0 -457 -176 q-152 -168 -152 -463z" />
<glyph unicode="&#x153;" horiz-adv-x="1820" d="M68 492q0 244 131 385q121 131 313 131q270 0 385 -230q131 229 395 230q209 0 328 -148q109 -135 117 -364h-764v-27q0 -172 76 -272q82 -106 239 -107q240 0 334 209l115 -31q-119 -293 -434 -293q-297 0 -406 230q-49 -117 -164 -178q-98 -51 -221 -52 q-193 0 -313 134q-131 139 -131 383zM190 492q0 -188 99 -299q90 -102 231 -103q141 0 234 103q96 111 96 299t-96 299q-93 102 -234 102t-231 -102q-98 -111 -99 -299zM973 598h624q-25 135 -81 201q-80 94 -242 94q-123 0 -204 -84t-97 -211z" />
<glyph unicode="&#x178;" horiz-adv-x="1249" d="M6 1458h168l455 -721l454 721h160l-549 -850v-608h-139v608zM395 1566v209h123v-209h-123zM733 1566v209h123v-209h-123z" />
<glyph unicode="&#x2c6;" horiz-adv-x="378" d="M-111 1143l230 284h137l233 -284h-133l-168 209l-170 -209h-129z" />
<glyph unicode="&#x2dc;" horiz-adv-x="378" d="M-131 1165q12 109 84 164q47 37 90 37q57 0 154.5 -44t144.5 -44q63 0 90 96h78q-6 -78 -49 -135q-47 -63 -119 -63q-51 0 -156 47q-92 41 -143 41q-67 -1 -98 -99h-76z" />
<glyph unicode="&#x2000;" horiz-adv-x="953" />
<glyph unicode="&#x2001;" horiz-adv-x="1907" />
<glyph unicode="&#x2002;" horiz-adv-x="953" />
<glyph unicode="&#x2003;" horiz-adv-x="1907" />
<glyph unicode="&#x2004;" horiz-adv-x="635" />
<glyph unicode="&#x2005;" horiz-adv-x="476" />
<glyph unicode="&#x2006;" horiz-adv-x="317" />
<glyph unicode="&#x2007;" horiz-adv-x="317" />
<glyph unicode="&#x2008;" horiz-adv-x="238" />
<glyph unicode="&#x2009;" horiz-adv-x="381" />
<glyph unicode="&#x200a;" horiz-adv-x="105" />
<glyph unicode="&#x2010;" horiz-adv-x="757" d="M92 475v127h574v-127h-574z" />
<glyph unicode="&#x2011;" horiz-adv-x="757" d="M92 475v127h574v-127h-574z" />
<glyph unicode="&#x2012;" horiz-adv-x="757" d="M92 475v127h574v-127h-574z" />
<glyph unicode="&#x2013;" d="M0 481v115h1024v-115h-1024z" />
<glyph unicode="&#x2014;" horiz-adv-x="2048" d="M0 481v115h2048v-115h-2048z" />
<glyph unicode="&#x2018;" horiz-adv-x="569" d="M197 897v221q0 211 106 340l70 -51q-92 -106 -88 -272h67v-238h-155z" />
<glyph unicode="&#x2019;" horiz-adv-x="569" d="M197 948q92 106 88 273h-68v237h156v-221q0 -176 -107 -340z" />
<glyph unicode="&#x201a;" horiz-adv-x="569" d="M197 -272q92 106 88 272h-68v238h156v-222q0 -211 -107 -340z" />
<glyph unicode="&#x201c;" horiz-adv-x="645" d="M109 897v221q0 211 106 340l70 -51q-92 -106 -88 -272h67v-238h-155zM360 897v221q0 211 107 340l70 -51q-92 -106 -88 -272h67v-238h-156z" />
<glyph unicode="&#x201d;" horiz-adv-x="645" d="M109 948q92 106 88 273h-68v237h156v-221q0 -176 -107 -340zM360 948q92 106 89 273h-68v237h156v-221q0 -176 -107 -340z" />
<glyph unicode="&#x201e;" horiz-adv-x="645" d="M109 -272q92 106 88 272h-68v238h156v-222q0 -211 -107 -340zM360 -272q92 106 89 272h-68v238h156v-222q0 -211 -107 -340z" />
<glyph unicode="&#x2022;" d="M147 729q0 152 107.5 258.5t257.5 106.5q152 0 258.5 -106.5t106.5 -258.5q0 -150 -106.5 -257t-258.5 -107q-150 0 -257.5 107t-107.5 257z" />
<glyph unicode="&#x2026;" horiz-adv-x="2048" d="M264 0v238h156v-238h-156zM946 0v238h156v-238h-156zM1628 0v238h156v-238h-156z" />
<glyph unicode="&#x202f;" horiz-adv-x="381" />
<glyph unicode="&#x2039;" horiz-adv-x="569" d="M111 539l249 383l99 -66l-211 -317l211 -318l-99 -65z" />
<glyph unicode="&#x203a;" horiz-adv-x="569" d="M111 221l211 318l-211 317l98 66l250 -383l-250 -383z" />
<glyph unicode="&#x205f;" horiz-adv-x="476" />
<glyph unicode="&#x2122;" horiz-adv-x="2027" d="M147 1368v90h656v-90h-277v-754h-102v754h-277zM954 614v844h174l273 -684l264 684h174v-844h-102v754h-4l-306 -754h-61l-305 754h-4v-754h-103z" />
<glyph unicode="&#xe000;" horiz-adv-x="983" d="M0 0v983h983v-983h-983z" />
</font>
</defs>
</svg>
